# FamiTracker text export 0.4.2

# Song information
TITLE           "Glitchy"
AUTHOR          "Doug Fraker"
COPYRIGHT       "2015"

# Song comment
COMMENT ""

# Global settings
MACHINE         0
FRAMERATE       0
EXPANSION       0
VIBRATO         1
SPLIT           32

# Macros
MACRO       0   0  -1  -1   0 : 3 2 1 1 0
MACRO       0   1  -1  -1   0 : 5 10 8 6 4
MACRO       0   2  -1  -1   0 : 3 6 5 3 2
MACRO       4   0  -1  -1   0 : 2
MACRO       4   1  -1  -1   0 : 2

# DPCM samples
DPCMDEF   0  1633 "boing"
DPCM : 55 55 55 55 55 55 55 55 55 55 55 55 55 55 55 55 55 55 55 55 55 55 55 55 55 55 55 55 55 55 55 55
DPCM : 55 55 55 55 55 55 55 55 55 55 55 55 55 55 55 55 55 55 55 55 55 55 55 55 55 55 55 55 55 55 55 55
DPCM : 55 55 55 55 55 55 55 55 55 55 55 55 55 55 55 55 55 55 55 55 55 55 55 55 55 55 55 55 55 55 55 55
DPCM : 55 55 55 55 55 55 55 55 55 55 55 55 55 55 55 55 55 55 55 55 55 55 55 55 55 55 55 55 55 55 55 55
DPCM : 55 55 55 55 55 55 55 55 55 55 55 55 AD D5 ED D7 7A FD FF 01 F0 FF 7F 00 E0 FF 07 00 F0 3F 00 00
DPCM : F8 04 00 00 10 00 00 00 00 00 00 00 00 00 F0 F9 FF FF FF FF 3F FF FF FF 3F F0 FF FF 0F 00 9C 9F
DPCM : 01 00 00 2E 26 00 E0 F1 1F 00 80 0F 16 00 FE 00 00 00 00 F0 23 FE FF FF FF FF 1F FC FF FF 3F 00
DPCM : 5C FC FB 00 00 68 1F 3F 00 00 80 F7 07 00 00 F0 FF 23 00 00 C0 1F 00 00 00 18 FF FF FF BF FF FF
DPCM : 1F C0 FF FF FF 07 00 60 FC FF 03 00 00 FC FF 00 00 00 F8 FF 00 00 00 DE 0F 00 00 00 00 00 00 E0
DPCM : FF FF FF D2 FF FF FF 07 F0 EA FF FF 07 00 00 F8 FF 1F 00 00 C0 7F 13 00 00 F0 78 D3 2F 34 00 00
DPCM : 00 D7 05 00 80 67 FD FF FF FF FF FF FF 1F 00 04 FD FF FF 01 00 00 F8 FF 0F 10 00 00 F0 DF 17 05
DPCM : 00 00 F4 FF 1D 00 00 00 00 BE 82 FF FE FF FF DB FF FF FF 04 00 0B FB FF 2B 00 00 C0 FA BF 1B 00
DPCM : 00 24 F0 A7 6F 49 00 00 E4 FF 9A 00 00 00 E0 3F C1 F3 FF FF FF FE FF FF 93 92 80 42 7F F7 0D 00
DPCM : 00 68 FE FF 02 00 80 05 FE F4 56 02 00 90 FC BF 05 00 00 90 FF 0F B4 FC FF FF AF FD FF FF 28 09
DPCM : A8 A4 7F 7E 21 00 00 CD FF 3B 01 08 50 C1 9F BC 29 04 00 4A FF 6F 02 00 00 E9 FF 09 9A FE FF FF
DPCM : AA FF FF 97 2C 21 94 B8 B7 5F 04 00 A0 FA BF 0F 20 00 56 78 97 BB 48 00 40 E5 FF 57 00 00 40 FF
DPCM : 1F 81 A9 FF FF B7 EA FF 7F 49 25 41 25 DE F5 55 02 00 A9 FE DB 03 12 C0 12 EE BA 2B 09 00 A8 FC
DPCM : FF 15 00 00 94 FF 17 B0 F4 FF BF A8 EB FF 37 A9 24 51 85 B7 FD 49 00 A0 AC 7F BD 40 88 D0 C4 5B
DPCM : ED 2A 02 80 52 FF F7 0A 04 00 F8 7F 41 8A FE FF 0B B5 FD FF 4E 2A 02 6A E9 AF 5F 24 00 A8 EA AF
DPCM : 2F 88 00 2A FA B5 5B 21 00 50 F9 DF 57 08 00 48 FE 9F C0 91 FF FF 62 AD 7F F7 55 29 84 4A F6 F5
DPCM : AB 04 08 54 7E DB 09 89 A0 24 77 B5 AB 28 00 48 EF F7 25 01 00 D2 FF 06 A9 D4 FF 3F A9 F6 DF 7D
DPCM : 65 11 21 95 BB 7E 55 04 82 D4 BD AE 44 22 A2 D0 AD 6B 55 02 80 D4 F7 7D 09 01 80 FA BE 02 4B F6
DPCM : FF 8F B4 FA DF 5F 55 84 50 B1 77 DF 14 04 A8 F2 AD 9B 10 21 49 DA B5 55 29 02 48 79 EF AE 08 00
DPCM : 24 DF 2F C4 52 FF 7F 95 D6 7E F7 6B 95 04 49 EC 76 AF 12 01 29 DD 75 4B 12 A1 88 6E DB AA 88 00
DPCM : A2 DE 7D 2B 04 00 D2 7F 13 AA D4 FF 5F 29 AB FF FE 55 45 90 94 6E 7B 4B 12 82 AA 5B BB 12 09 2A
DPCM : D1 AD B6 92 84 20 D2 76 6F 15 01 80 DC 6F 91 2A F5 FF AD AA B5 DF BF 56 8A 90 A4 5D 77 95 44 50
DPCM : 69 DB B6 24 81 8A 74 AD 2B 29 08 22 ED EE 96 24 80 48 77 97 A4 A9 FE 6F 2B AD EE FD DD AA 08 49
DPCM : 69 DB AD 54 84 54 6D B5 A6 4A 44 8A D6 DA 2A 09 90 C4 76 7B 25 11 20 6A 7B 15 59 AA FF 5B 55 AD
DPCM : BD FB 5D 2B 11 51 BA 75 2B 25 A1 AA 56 6D A5 24 A4 A4 D5 5A A5 04 22 69 DB 5D 49 08 24 6D 5B 49
DPCM : 55 B5 7F 5B 59 AB FB 7E AB 15 91 94 AD 6D 55 8A A8 B2 B5 56 52 89 92 AA AA 55 A5 80 48 B6 DD 4D
DPCM : 11 40 52 77 53 54 55 BD BF 56 6A F5 DE BB 55 25 25 69 AB 5B 95 22 A9 DC 6A 4B 49 22 A9 AA DA 2A
DPCM : 49 20 CA D6 6E 55 04 10 D9 DD 12 A9 AA 7F D7 52 AD BE FB AE 56 4A 4A B6 75 55 4A 52 A5 35 5B A9
DPCM : 24 4A AA AA 56 55 12 22 6A 75 D7 24 08 44 ED 36 51 56 75 DF AD D2 AA 6F BF 6B 95 A4 52 5B 57 55
DPCM : 4A 54 59 AB 96 2A 89 A4 6A 6A 55 A5 90 88 AD 6D 4D 22 20 D1 76 55 A4 AA BE DF AA 54 F5 DB 6F AB
DPCM : 4A AA D4 D6 36 55 22 95 DA 6A 55 8A 48 A9 AA 56 55 2A 24 51 6B DB 2A 02 42 B4 5D 93 54 A9 FB DB
DPCM : 2A 4D 7D FB DD AA 92 2A 6D 75 AB 92 24 95 AD 6A A9 24 92 AA AA 56 95 12 92 B4 DA 56 95 80 88 6A
DPCM : 5B 49 55 D9 F7 5A 55 D5 BD 7D DB 2A A9 CA B6 B6 54 49 2A 55 CB AA 4A 11 A9 AA 6A 55 2A 91 22 5B
DPCM : 6D 35 25 88 50 AD 55 CA 4A DD BB 5A 5A B5 B7 EF 56 95 54 D5 B6 55 55 92 54 D6 AA AA 52 44 A9 AA
DPCM : 56 55 4A A4 A4 55 5B 55 12 24 AA 56 15 B5 D4 EE AD A6 56 ED ED DB 6A 4A AA B6 6D 55 95 A4 92 55
DPCM : 55 55 15 49 AA AA 56 95 8A 24 55 B5 AD 14 11 49 5A AB 44 55 75 EF 56 A5 AA BD 7B B7 AA A4 D2 6E
DPCM : 5B 55 49 4A D5 2A 4B A9 92 52 AA AA 55 A5 92 24 AD 6A AD 24 42 A2 B5 AA A8 4A DD DB 5A 5A D5 EE
DPCM : F6 B6 2A AA D4 B6 6B 55 8A 94 6A D5 4A 29 29 A5 5A 55 55 2A 4A A9 95 56 55 12 51 54 AB 4A AA AA
DPCM : DD 6D 95 5A 76 B7 DB 56 A5 2A 6D 6B AB 2A 29 95 56 56 95 4A 52 AA 56 55 95 4A 4A 6A 55 AB 4A 44
DPCM : 24 B5 56 49 95 AA 7B 5B A5 A6 DD 6E B7 AA 52 55 5B DB AA 94 54 65 55 55 2A A5 54 6A D5 2A A5 A2
DPCM : 52 B5 AA AA 92 90 A4 6A 55 52 A5 B6 DB AA AA EA B6 DB B6 4A AA EA B6 B5 4A 4A AA 5A D5 52 29 49
DPCM : A5 B5 56 25 29 A5 B2 AA AA 2A 45 44 AA 56 95 54 A9 ED B6 AA AA DA EE B6 B5 92 AA DA 75 AD 92 52
DPCM : A9 5A B5 52 29 4A 55 AB 55 25 49 4A D5 6A 55 4A 22 4A 5A 55 A5 2A B5 EE AA AA 96 AD DD DA AA 94
DPCM : AA 6D AD 55 95 52 55 AD AA 2A A5 54 B5 AA 55 2A A9 AA AA 5A 55 A5 4A A9 AA AA 54 95 AA 55 55 AA
DPCM : 4A AB B5 6A 95 4A 55 6B B5 AA 54 55 B5 AA AA AA AA AA AA 55 95 AA AA AA 5A 55 55 95 AA AA 5A A5
DPCM : AA AA AA AA 2A 55 A9 6A D5 AA 52 95 6A B5 AA AA 54 55 B5 AA AA 52 55 D5 AA AA AA 52 55 AD AA AA
DPCM : AA AA AA AA AA AA 4A 55 B5 4A 55 55 A5 56 55 AB AA 54 55 AD AA AA 52 55 D5 AA AA 54 55 55 AB AA
DPCM : 55
DPCMDEF   1  1505 "Jump"
DPCM : 55 55 55 55 55 55 55 55 55 55 55 55 55 55 55 55 55 55 55 55 55 55 55 55 55 55 55 55 55 55 55 55
DPCM : 55 55 55 55 55 55 55 55 55 55 55 55 55 55 55 55 55 55 55 55 55 55 55 55 55 55 55 55 55 55 55 55
DPCM : 55 55 55 55 55 55 55 55 55 55 55 55 55 55 55 55 55 55 55 55 55 55 55 55 55 55 55 55 55 55 55 55
DPCM : 55 55 55 55 55 55 55 55 55 55 55 55 55 55 55 55 55 55 55 55 55 55 55 55 55 55 55 55 55 55 55 55
DPCM : 55 55 55 55 55 55 55 55 55 55 55 55 55 55 55 55 55 55 55 55 55 55 55 55 55 55 55 55 55 55 55 55
DPCM : 55 55 55 55 55 55 55 55 55 55 55 55 55 2D 59 55 55 55 4D 7A 70 53 55 D5 A4 4D 36 D9 C4 0F 7C C4
DPCM : 4D B6 70 87 36 D9 64 4B 5A 55 D9 92 BA A4 4D 55 D5 A2 2D 55 75 C4 47 95 76 E0 0F 56 35 69 4B 55
DPCM : 76 E0 0F 5C 35 F8 03 1F 7C 68 8B 36 55 55 C5 0F FC C0 47 55 1D F4 03 1F 5A D5 A4 8B 56 55 D9 A2
DPCM : 55 55 A5 2B DC 54 D5 81 3F F0 03 1F F8 03 3F E0 0F F8 03 1F F8 03 3F E0 07 7E 70 93 5E 70 47 FC
DPCM : 80 3F F0 03 1F 69 53 36 55 55 2D 69 47 DC 52 55 D5 54 2D DC 11 B7 A8 55 D5 52 B5 D4 92 2D 55 55
DPCM : 55 45 57 D1 96 AA 5A 55 55 AD 56 69 8B 5A 52 55 55 55 69 55 55 55 55 55 A5 56 49 55 C0 3F E0 1F
DPCM : FF E9 1F C0 07 10 F0 03 F8 BA AB F6 4B B4 55 10 6D 85 B4 57 A5 3D 69 49 01 FC 01 FE E0 7F FE 0F
DPCM : F8 03 00 F8 00 F4 7F FC F5 07 C0 0F 00 7F 05 FC 3F A0 FD 01 00 F0 07 FC E7 FF F8 3F C0 07 00 E0
DPCM : 1F E0 FF E1 E2 1F 00 3F 00 FE 7F 00 FE 01 F4 0F C0 0F F8 07 FF 83 FF 00 0F 80 01 FF 87 FF F0 03
DPCM : F8 00 FC C1 5F 6A 0B 72 17 00 F8 07 FC E7 7F E0 3F C0 03 38 E0 FF D0 2F 76 01 7E 80 2F 75 91 FD
DPCM : 00 1F 00 FE 80 7F FC 0F FC 07 10 F0 0F BC 75 83 76 5A 49 B5 A6 9E C0 7F 80 0F 00 7F 80 3F FC 0F
DPCM : FE 01 07 F0 4F 55 C0 FF 80 7F F0 01 DE D4 52 FE 01 E0 07 FC C1 FF 81 0F 6C 00 FE FF 00 F8 0F 40
DPCM : FF 17 00 FF 0B C0 07 C0 1F F8 8F FF C1 0F 28 01 7F FA 03 F8 07 9D D4 2F 00 FF 07 30 00 FE C0 7F
DPCM : FC 0F 16 F6 03 80 FF 0F E0 BF 07 C0 0F 3D E0 7F 00 00 FE C1 1F FE 0F 01 FE 03 2C FA 0F B6 E0 3F
DPCM : B0 C0 FF 00 7E 00 FC C0 7F F8 3F 06 54 13 77 C0 7F 52 94 2D 5D C4 B6 54 25 00 FE E1 1F FC FF 00
DPCM : 78 49 15 E0 FF 49 D4 0F 6A C4 2F D8 01 E0 1F 7E E0 FF 15 80 1F 59 01 FF 47 05 FD 45 05 FC 43 03
DPCM : E0 1F 7F C0 FF 57 00 2E 75 00 FE DF 02 FC 61 03 F8 55 01 F0 F7 0F F0 FF 15 80 55 0F C0 7F 7E 80
DPCM : 3F 78 00 7E 01 E0 9F 7F E0 FF 16 80 B6 2A 81 FE 67 03 FE 50 0B 59 01 C0 DF 3F E8 BF 17 40 55 3D
DPCM : 80 FF D7 02 FC A0 07 F0 11 80 1F FD A7 6F BD 80 4A 6C 45 FE 8B 4D 78 21 27 A9 08 C0 3F FE E1 9F
DPCM : FE 00 0C 7C A5 EE EC 05 FA 40 4B F0 15 00 3F FF 81 7F FF 00 10 EC 27 B5 F5 07 3A 80 1F 29 00 FC
DPCM : FF 04 7F FF 03 80 D2 5D A4 B5 BF 90 42 BE 90 02 C0 DF 3F F0 DB 7F 00 94 74 0F 75 E9 0F 2A 64 17
DPCM : 05 00 F7 7F 49 ED FF 01 20 69 7F A4 EA BE 22 40 6D 55 00 D0 FF A7 D2 FD 27 00 A9 7F 13 D2 77 2B
DPCM : 80 4A 6D 00 24 FF AF 2D FD 4B 02 90 DF 5F 81 6E 77 00 92 5A 01 22 FF 5F 55 F5 57 42 40 FD 7B 42
DPCM : 5B 77 01 24 5A 80 92 FE AF 55 ED AD 84 20 FD DE 22 6D 7B 01 A4 AC 00 54 FD AF 5A BB 5B 84 88 7A
DPCM : 6F 45 AD BD 01 14 55 02 4A FD CF 56 F5 D6 12 44 F4 BF 4A D2 DE 12 41 B4 10 48 FA DF 56 B5 37 15
DPCM : 24 52 FF D5 24 7B 93 40 95 12 20 B5 7F 5D 65 5F 2B 42 21 FD 9B 56 6A 57 42 54 49 02 52 FB AF 55
DPCM : F5 55 25 24 A9 F7 AA 56 B5 29 22 95 4A 00 AD FF 5A 55 FD 25 11 25 A5 7B 6B 0B ED 92 09 A9 25 00
DPCM : AE FF 69 95 FD 55 01 A5 AA BA A5 8B BE C2 06 55 22 15 A8 D7 5F 55 A7 77 52 12 69 95 B6 59 93 5D
DPCM : D4 12 2A 91 44 6D 7D 57 5D ED 4A 25 29 55 E4 55 37 B2 95 5D 50 91 AC 90 AE EA 57 BD F4 45 36 50
DPCM : 55 AA 95 55 D5 95 5A 51 95 AC 42 B4 D5 6E 55 B5 37 55 85 AA 52 55 52 AB 56 55 55 AB 54 55 55 A9
DPCM : 2A 55 AB 6A AD AA 5A 55 55 4A 55 A9 56 A9 AA 56 AB AA AA 2A 55 55 52 4A B5 AD 56 B5 D6 AA AA 94
DPCM : 54 55 55 55 6A 55 55 55 55 A9 96 2A 55 D6 56 55 55 AD 55 55 A5 54 55 55 55 55 55 55 55 55 A5 56
DPCM : 55 A5 52 5B 59 55 D5 AA D6 4A A5 54 55 55 52 55 6B 55 D5 AA 2A 55 55 2A A5 B6 55 55 55 5B 55 A5
DPCM : 52 55 55 55 55 55 55 55 55 55 55 55 55 A5 AA 5A 55 55 55 55 55 AB AA 54 55 55 55 55 55 55 55 55
DPCM : 55 4B 55 55 55 A5 AA 5A 55 55 55 55 AD 54 55 55 55 55 55 55 55 55 55 55 55 55 A5 AA AA AA 55 55
DPCM : 55 55 AB AA AA AA AA 54 55 55 55 55 55 55 A9 6A 55 55 55 55 55 55 D5 AA AA 4A 55 55 55 55 55 55
DPCM : 55 55 55 55 55 56 AA 56 55 55 D5 AA AA AA 54 55 55 55 55 55 55 55 55 55 55 55 55 55 55 55 55 55
DPCM : 55 55 55 55 55 55 55 55 55 55 55 55 55 55 55 55 55 55 55 55 55 55 95 AA 6A 55 55 55 55 AB AA AA
DPCM : 4A 55 55 55 55 55 55 A5 AA AA 55 55 55 55 55 55 55 55 55 55 55 55 55 55 55 55 55 55 55 55 55 55
DPCM : 55 55 55 55 55 55 55 55 55 55 55 55 55 55 55 55 55 55 55 55 55 55 55 55 55 55 55 55 55 55 55 55
DPCM : 55 55 55 55 55 55 55 55 55 55 55 55 55 55 55 55 55 55 55 55 55 55 55 55 55 55 55 55 55 55 55 55
DPCM : 55 55 55 55 55 55 55 55 55 55 55 55 55 55 55 55 55 55 55 55 55 55 55 55 55 55 55 55 55 55 55 55
DPCM : 55

# Instruments
INST2A03   0     0  -1  -1  -1   0 "Samples"
KEYDPCM   0   3   0     0  15   0     0  -1
KEYDPCM   0   3   2     1  15   0     0  -1
INST2A03   1     1  -1  -1  -1   0 "New instrument"
INST2A03   2     2  -1  -1  -1   1 "New instrument"

# Tracks

TRACK  64   6 150 "New song"
COLUMNS : 1 1 1 1 1

ORDER 00 : 00 00 00 00 00
ORDER 01 : 01 00 00 00 00
ORDER 02 : 01 00 00 00 00
ORDER 03 : 01 01 01 00 00
ORDER 04 : 01 01 01 00 00
ORDER 05 : 01 02 01 00 00
ORDER 06 : 01 02 01 00 00
ORDER 07 : 01 03 01 00 00
ORDER 08 : 01 03 01 00 00
ORDER 09 : 00 01 01 00 00
ORDER 0A : 00 01 01 01 00

PATTERN 00
ROW 00 : --- .. . ... : --- .. . ... : --- .. . ... : 8-# 00 . ... : ... .. . ...
ROW 01 : ... .. . ... : ... .. . ... : ... .. . ... : ... .. . ... : ... .. . ...
ROW 02 : ... .. . ... : ... .. . ... : ... .. . ... : ... .. . ... : ... .. . ...
ROW 03 : ... .. . ... : ... .. . ... : ... .. . ... : ... .. . ... : ... .. . ...
ROW 04 : ... .. . ... : ... .. . ... : ... .. . ... : 4-# 00 . ... : ... .. . ...
ROW 05 : ... .. . ... : ... .. . ... : ... .. . ... : ... .. . ... : ... .. . ...
ROW 06 : ... .. . ... : ... .. . ... : ... .. . ... : ... .. . ... : ... .. . ...
ROW 07 : ... .. . ... : ... .. . ... : ... .. . ... : 8-# 00 . ... : ... .. . ...
ROW 08 : ... .. . ... : ... .. . ... : ... .. . ... : ... .. . ... : ... .. . ...
ROW 09 : ... .. . ... : ... .. . ... : ... .. . ... : 6-# 00 . ... : ... .. . ...
ROW 0A : ... .. . ... : ... .. . ... : ... .. . ... : ... .. . ... : ... .. . ...
ROW 0B : ... .. . ... : ... .. . ... : ... .. . ... : 8-# 00 . ... : ... .. . ...
ROW 0C : ... .. . ... : ... .. . ... : ... .. . ... : 4-# 00 . ... : ... .. . ...
ROW 0D : ... .. . ... : ... .. . ... : ... .. . ... : ... .. . ... : ... .. . ...
ROW 0E : ... .. . ... : ... .. . ... : ... .. . ... : ... .. . ... : ... .. . ...
ROW 0F : ... .. . ... : ... .. . ... : ... .. . ... : ... .. . ... : ... .. . ...
ROW 10 : ... .. . ... : ... .. . ... : ... .. . ... : 8-# 00 . ... : ... .. . ...
ROW 11 : ... .. . ... : ... .. . ... : ... .. . ... : ... .. . ... : ... .. . ...
ROW 12 : ... .. . ... : ... .. . ... : ... .. . ... : ... .. . ... : ... .. . ...
ROW 13 : ... .. . ... : ... .. . ... : ... .. . ... : ... .. . ... : ... .. . ...
ROW 14 : ... .. . ... : ... .. . ... : ... .. . ... : 4-# 00 . ... : ... .. . ...
ROW 15 : ... .. . ... : ... .. . ... : ... .. . ... : ... .. . ... : ... .. . ...
ROW 16 : ... .. . ... : ... .. . ... : ... .. . ... : ... .. . ... : ... .. . ...
ROW 17 : ... .. . ... : ... .. . ... : ... .. . ... : 8-# 00 . ... : ... .. . ...
ROW 18 : ... .. . ... : ... .. . ... : ... .. . ... : ... .. . ... : ... .. . ...
ROW 19 : ... .. . ... : ... .. . ... : ... .. . ... : 6-# 00 . ... : ... .. . ...
ROW 1A : ... .. . ... : ... .. . ... : ... .. . ... : ... .. . ... : ... .. . ...
ROW 1B : ... .. . ... : ... .. . ... : ... .. . ... : 8-# 00 . ... : ... .. . ...
ROW 1C : ... .. . ... : ... .. . ... : ... .. . ... : 4-# 00 . ... : ... .. . ...
ROW 1D : ... .. . ... : ... .. . ... : ... .. . ... : ... .. . ... : ... .. . ...
ROW 1E : ... .. . ... : ... .. . ... : ... .. . ... : 4-# 00 . ... : ... .. . ...
ROW 1F : ... .. . ... : ... .. . ... : ... .. . ... : ... .. . ... : ... .. . ...
ROW 20 : ... .. . ... : ... .. . ... : ... .. . ... : 8-# 00 . ... : ... .. . ...
ROW 21 : ... .. . ... : ... .. . ... : ... .. . ... : ... .. . ... : ... .. . ...
ROW 22 : ... .. . ... : ... .. . ... : ... .. . ... : ... .. . ... : ... .. . ...
ROW 23 : ... .. . ... : ... .. . ... : ... .. . ... : ... .. . ... : ... .. . ...
ROW 24 : ... .. . ... : ... .. . ... : ... .. . ... : 4-# 00 . ... : ... .. . ...
ROW 25 : ... .. . ... : ... .. . ... : ... .. . ... : ... .. . ... : ... .. . ...
ROW 26 : ... .. . ... : ... .. . ... : ... .. . ... : ... .. . ... : ... .. . ...
ROW 27 : ... .. . ... : ... .. . ... : ... .. . ... : 8-# 00 . ... : ... .. . ...
ROW 28 : ... .. . ... : ... .. . ... : ... .. . ... : ... .. . ... : ... .. . ...
ROW 29 : ... .. . ... : ... .. . ... : ... .. . ... : 6-# 00 . ... : ... .. . ...
ROW 2A : ... .. . ... : ... .. . ... : ... .. . ... : ... .. . ... : ... .. . ...
ROW 2B : ... .. . ... : ... .. . ... : ... .. . ... : 8-# 00 . ... : ... .. . ...
ROW 2C : ... .. . ... : ... .. . ... : ... .. . ... : 4-# 00 . ... : ... .. . ...
ROW 2D : ... .. . ... : ... .. . ... : ... .. . ... : ... .. . ... : ... .. . ...
ROW 2E : ... .. . ... : ... .. . ... : ... .. . ... : ... .. . ... : ... .. . ...
ROW 2F : ... .. . ... : ... .. . ... : ... .. . ... : ... .. . ... : ... .. . ...
ROW 30 : ... .. . ... : ... .. . ... : ... .. . ... : 8-# 00 . ... : ... .. . ...
ROW 31 : ... .. . ... : ... .. . ... : ... .. . ... : ... .. . ... : ... .. . ...
ROW 32 : ... .. . ... : ... .. . ... : ... .. . ... : ... .. . ... : ... .. . ...
ROW 33 : ... .. . ... : ... .. . ... : ... .. . ... : ... .. . ... : ... .. . ...
ROW 34 : ... .. . ... : ... .. . ... : ... .. . ... : 4-# 00 . ... : ... .. . ...
ROW 35 : ... .. . ... : ... .. . ... : ... .. . ... : ... .. . ... : ... .. . ...
ROW 36 : ... .. . ... : ... .. . ... : ... .. . ... : ... .. . ... : ... .. . ...
ROW 37 : ... .. . ... : ... .. . ... : ... .. . ... : 9-# 00 . ... : ... .. . ...
ROW 38 : ... .. . ... : ... .. . ... : ... .. . ... : ... .. . ... : ... .. . ...
ROW 39 : ... .. . ... : ... .. . ... : ... .. . ... : 9-# 00 . ... : ... .. . ...
ROW 3A : ... .. . ... : ... .. . ... : ... .. . ... : ... .. . ... : ... .. . ...
ROW 3B : ... .. . ... : ... .. . ... : ... .. . ... : 9-# 00 . ... : ... .. . ...
ROW 3C : ... .. . ... : ... .. . ... : ... .. . ... : ... .. . ... : ... .. . ...
ROW 3D : ... .. . ... : ... .. . ... : ... .. . ... : 9-# 00 . ... : ... .. . ...
ROW 3E : ... .. . ... : ... .. . ... : ... .. . ... : 6-# 00 . ... : ... .. . ...
ROW 3F : ... .. . ... : ... .. . ... : ... .. . ... : 4-# 00 . ... : ... .. . ...

PATTERN 01
ROW 00 : F-1 01 . ... : C-5 02 . ... : C-4 01 . ... : 8-# 00 . ... : ... .. . ...
ROW 01 : ... .. . ... : ... .. . ... : ... .. . ... : ... .. . ... : ... .. . ...
ROW 02 : ... .. . ... : --- .. . ... : ... .. . ... : ... .. . ... : ... .. . ...
ROW 03 : ... .. . ... : ... .. . ... : ... .. . ... : ... .. . ... : ... .. . ...
ROW 04 : ... .. . ... : ... .. . ... : ... .. . ... : 4-# 00 . ... : ... .. . ...
ROW 05 : ... .. . ... : ... .. . ... : ... .. . ... : ... .. . ... : ... .. . ...
ROW 06 : ... .. . ... : ... .. . ... : D-4 01 . ... : ... .. . ... : ... .. . ...
ROW 07 : ... .. . ... : ... .. . ... : ... .. . ... : 8-# 00 . ... : ... .. . ...
ROW 08 : ... .. . ... : ... .. . ... : C-4 01 . ... : ... .. . ... : ... .. . ...
ROW 09 : ... .. . ... : ... .. . ... : ... .. . ... : 6-# 00 . ... : ... .. . ...
ROW 0A : ... .. . ... : ... .. . ... : ... .. . ... : ... .. . ... : ... .. . ...
ROW 0B : ... .. . ... : ... .. . ... : ... .. . ... : 8-# 00 . ... : ... .. . ...
ROW 0C : ... .. . ... : ... .. . ... : ... .. . ... : 4-# 00 . ... : ... .. . ...
ROW 0D : ... .. . ... : ... .. . ... : ... .. . ... : ... .. . ... : ... .. . ...
ROW 0E : ... .. . ... : ... .. . ... : ... .. . ... : ... .. . ... : ... .. . ...
ROW 0F : ... .. . ... : ... .. . ... : ... .. . ... : ... .. . ... : ... .. . ...
ROW 10 : ... .. . ... : E-4 02 . ... : ... .. . ... : 8-# 00 . ... : ... .. . ...
ROW 11 : ... .. . ... : ... .. . ... : ... .. . ... : ... .. . ... : ... .. . ...
ROW 12 : ... .. . ... : --- .. . ... : ... .. . ... : ... .. . ... : ... .. . ...
ROW 13 : ... .. . ... : ... .. . ... : ... .. . ... : ... .. . ... : ... .. . ...
ROW 14 : ... .. . ... : ... .. . ... : ... .. . ... : 4-# 00 . ... : ... .. . ...
ROW 15 : ... .. . ... : ... .. . ... : ... .. . ... : ... .. . ... : ... .. . ...
ROW 16 : ... .. . ... : ... .. . ... : ... .. . ... : ... .. . ... : ... .. . ...
ROW 17 : ... .. . ... : ... .. . ... : ... .. . ... : 8-# 00 . ... : ... .. . ...
ROW 18 : ... .. . ... : ... .. . ... : A-3 01 . ... : ... .. . ... : ... .. . ...
ROW 19 : ... .. . ... : ... .. . ... : ... .. . ... : 6-# 00 . ... : ... .. . ...
ROW 1A : ... .. . ... : ... .. . ... : ... .. . ... : ... .. . ... : ... .. . ...
ROW 1B : ... .. . ... : ... .. . ... : ... .. . ... : 8-# 00 . ... : ... .. . ...
ROW 1C : G-1 01 . ... : ... .. . ... : ... .. . ... : 4-# 00 . ... : ... .. . ...
ROW 1D : ... .. . ... : ... .. . ... : ... .. . ... : ... .. . ... : ... .. . ...
ROW 1E : ... .. . ... : ... .. . ... : ... .. . ... : 4-# 00 . ... : ... .. . ...
ROW 1F : ... .. . ... : F-4 02 . ... : ... .. . ... : ... .. . ... : ... .. . ...
ROW 20 : C-1 01 . ... : G-4 02 . ... : G-3 01 . ... : 8-# 00 . ... : ... .. . ...
ROW 21 : ... .. . ... : ... .. . ... : ... .. . ... : ... .. . ... : ... .. . ...
ROW 22 : ... .. . ... : --- .. . ... : C-3 01 . ... : ... .. . ... : ... .. . ...
ROW 23 : ... .. . ... : ... .. . ... : ... .. . ... : ... .. . ... : ... .. . ...
ROW 24 : ... .. . ... : ... .. . ... : ... .. . ... : 4-# 00 . ... : ... .. . ...
ROW 25 : ... .. . ... : ... .. . ... : ... .. . ... : ... .. . ... : ... .. . ...
ROW 26 : ... .. . ... : ... .. . ... : ... .. . ... : ... .. . ... : ... .. . ...
ROW 27 : ... .. . ... : ... .. . ... : ... .. . ... : 8-# 00 . ... : ... .. . ...
ROW 28 : ... .. . ... : C-4 02 . ... : ... .. . ... : ... .. . ... : ... .. . ...
ROW 29 : ... .. . ... : ... .. . ... : ... .. . ... : 6-# 00 . ... : ... .. . ...
ROW 2A : ... .. . ... : --- .. . ... : ... .. . ... : ... .. . ... : ... .. . ...
ROW 2B : ... .. . ... : ... .. . ... : ... .. . ... : 8-# 00 . ... : ... .. . ...
ROW 2C : ... .. . ... : ... .. . ... : ... .. . ... : 4-# 00 . ... : ... .. . ...
ROW 2D : ... .. . ... : ... .. . ... : ... .. . ... : ... .. . ... : ... .. . ...
ROW 2E : ... .. . ... : ... .. . ... : ... .. . ... : ... .. . ... : ... .. . ...
ROW 2F : ... .. . ... : ... .. . ... : ... .. . ... : ... .. . ... : ... .. . ...
ROW 30 : ... .. . ... : C-4 02 . ... : D-3 01 . ... : 8-# 00 . ... : ... .. . ...
ROW 31 : ... .. . ... : ... .. . ... : ... .. . ... : ... .. . ... : ... .. . ...
ROW 32 : ... .. . ... : --- .. . ... : ... .. . ... : ... .. . ... : ... .. . ...
ROW 33 : ... .. . ... : ... .. . ... : ... .. . ... : ... .. . ... : ... .. . ...
ROW 34 : ... .. . ... : ... .. . ... : E-3 01 . ... : 4-# 00 . ... : ... .. . ...
ROW 35 : ... .. . ... : ... .. . ... : ... .. . ... : ... .. . ... : ... .. . ...
ROW 36 : ... .. . ... : ... .. . ... : ... .. . ... : ... .. . ... : ... .. . ...
ROW 37 : ... .. . ... : ... .. . ... : ... .. . ... : 9-# 00 . ... : ... .. . ...
ROW 38 : ... .. . ... : C-4 02 . ... : F-3 01 . ... : ... .. . ... : ... .. . ...
ROW 39 : ... .. . ... : ... .. . ... : ... .. . ... : 9-# 00 . ... : ... .. . ...
ROW 3A : ... .. . ... : --- .. . ... : ... .. . ... : ... .. . ... : ... .. . ...
ROW 3B : ... .. . ... : ... .. . ... : ... .. . ... : 9-# 00 . ... : ... .. . ...
ROW 3C : ... .. . ... : ... .. . ... : G-3 01 . ... : ... .. . ... : ... .. . ...
ROW 3D : ... .. . ... : ... .. . ... : ... .. . ... : 9-# 00 . ... : ... .. . ...
ROW 3E : ... .. . ... : ... .. . ... : ... .. . ... : 6-# 00 . ... : ... .. . ...
ROW 3F : ... .. . ... : ... .. . ... : ... .. . ... : 4-# 00 . B03 : ... .. . ...

PATTERN 02
ROW 00 : ... .. . ... : C-4 02 . ... : ... .. . ... : ... .. . ... : ... .. . ...
ROW 01 : ... .. . ... : ... .. . ... : ... .. . ... : ... .. . ... : ... .. . ...
ROW 02 : ... .. . ... : E-4 .. . ... : ... .. . ... : ... .. . ... : ... .. . ...
ROW 03 : ... .. . ... : ... .. . ... : ... .. . ... : ... .. . ... : ... .. . ...
ROW 04 : ... .. . ... : G-4 .. . ... : ... .. . ... : ... .. . ... : ... .. . ...
ROW 05 : ... .. . ... : ... .. . ... : ... .. . ... : ... .. . ... : ... .. . ...
ROW 06 : ... .. . ... : C-4 .. . ... : ... .. . ... : ... .. . ... : ... .. . ...
ROW 07 : ... .. . ... : ... .. . ... : ... .. . ... : ... .. . ... : ... .. . ...
ROW 08 : ... .. . ... : E-4 .. . ... : ... .. . ... : ... .. . ... : ... .. . ...
ROW 09 : ... .. . ... : ... .. . ... : ... .. . ... : ... .. . ... : ... .. . ...
ROW 0A : ... .. . ... : G-4 .. . ... : ... .. . ... : ... .. . ... : ... .. . ...
ROW 0B : ... .. . ... : ... .. . ... : ... .. . ... : ... .. . ... : ... .. . ...
ROW 0C : ... .. . ... : C-4 .. . ... : ... .. . ... : ... .. . ... : ... .. . ...
ROW 0D : ... .. . ... : ... .. . ... : ... .. . ... : ... .. . ... : ... .. . ...
ROW 0E : ... .. . ... : E-4 .. . ... : ... .. . ... : ... .. . ... : ... .. . ...
ROW 0F : ... .. . ... : ... .. . ... : ... .. . ... : ... .. . ... : ... .. . ...
ROW 10 : ... .. . ... : G-4 .. . ... : ... .. . ... : ... .. . ... : ... .. . ...
ROW 11 : ... .. . ... : ... .. . ... : ... .. . ... : ... .. . ... : ... .. . ...
ROW 12 : ... .. . ... : C-4 .. . ... : ... .. . ... : ... .. . ... : ... .. . ...
ROW 13 : ... .. . ... : ... .. . ... : ... .. . ... : ... .. . ... : ... .. . ...
ROW 14 : ... .. . ... : E-4 .. . ... : ... .. . ... : ... .. . ... : ... .. . ...
ROW 15 : ... .. . ... : ... .. . ... : ... .. . ... : ... .. . ... : ... .. . ...
ROW 16 : ... .. . ... : G-4 .. . ... : ... .. . ... : ... .. . ... : ... .. . ...
ROW 17 : ... .. . ... : ... .. . ... : ... .. . ... : ... .. . ... : ... .. . ...
ROW 18 : ... .. . ... : F-4 .. . ... : ... .. . ... : ... .. . ... : ... .. . ...
ROW 19 : ... .. . ... : ... .. . ... : ... .. . ... : ... .. . ... : ... .. . ...
ROW 1A : ... .. . ... : E-4 .. . ... : ... .. . ... : ... .. . ... : ... .. . ...
ROW 1B : ... .. . ... : ... .. . ... : ... .. . ... : ... .. . ... : ... .. . ...
ROW 1C : ... .. . ... : D-4 .. . ... : ... .. . ... : ... .. . ... : ... .. . ...
ROW 1D : ... .. . ... : ... .. . ... : ... .. . ... : ... .. . ... : ... .. . ...
ROW 1E : ... .. . ... : E-4 .. . ... : ... .. . ... : ... .. . ... : ... .. . ...
ROW 1F : ... .. . ... : ... .. . ... : ... .. . ... : ... .. . ... : ... .. . ...
ROW 20 : ... .. . ... : C-4 02 . ... : ... .. . ... : ... .. . ... : ... .. . ...
ROW 21 : ... .. . ... : ... .. . ... : ... .. . ... : ... .. . ... : ... .. . ...
ROW 22 : ... .. . ... : D-4 02 . ... : ... .. . ... : ... .. . ... : ... .. . ...
ROW 23 : ... .. . ... : ... .. . ... : ... .. . ... : ... .. . ... : ... .. . ...
ROW 24 : ... .. . ... : E-4 02 . ... : ... .. . ... : ... .. . ... : ... .. . ...
ROW 25 : ... .. . ... : ... .. . ... : ... .. . ... : ... .. . ... : ... .. . ...
ROW 26 : ... .. . ... : C-4 02 . ... : ... .. . ... : ... .. . ... : ... .. . ...
ROW 27 : ... .. . ... : ... .. . ... : ... .. . ... : ... .. . ... : ... .. . ...
ROW 28 : ... .. . ... : D-4 02 . ... : ... .. . ... : ... .. . ... : ... .. . ...
ROW 29 : ... .. . ... : ... .. . ... : ... .. . ... : ... .. . ... : ... .. . ...
ROW 2A : ... .. . ... : E-4 02 . ... : ... .. . ... : ... .. . ... : ... .. . ...
ROW 2B : ... .. . ... : ... .. . ... : ... .. . ... : ... .. . ... : ... .. . ...
ROW 2C : ... .. . ... : C-4 02 . ... : ... .. . ... : ... .. . ... : ... .. . ...
ROW 2D : ... .. . ... : ... .. . ... : ... .. . ... : ... .. . ... : ... .. . ...
ROW 2E : ... .. . ... : D-4 02 . ... : ... .. . ... : ... .. . ... : ... .. . ...
ROW 2F : ... .. . ... : ... .. . ... : ... .. . ... : ... .. . ... : ... .. . ...
ROW 30 : ... .. . ... : E-4 02 . ... : ... .. . ... : ... .. . ... : ... .. . ...
ROW 31 : ... .. . ... : ... .. . ... : ... .. . ... : ... .. . ... : ... .. . ...
ROW 32 : ... .. . ... : ... .. . ... : ... .. . ... : ... .. . ... : ... .. . ...
ROW 33 : ... .. . ... : ... .. . ... : ... .. . ... : ... .. . ... : ... .. . ...
ROW 34 : ... .. . ... : G-4 02 . ... : ... .. . ... : ... .. . ... : ... .. . ...
ROW 35 : ... .. . ... : ... .. . ... : ... .. . ... : ... .. . ... : ... .. . ...
ROW 36 : ... .. . ... : ... .. . ... : ... .. . ... : ... .. . ... : ... .. . ...
ROW 37 : ... .. . ... : ... .. . ... : ... .. . ... : ... .. . ... : ... .. . ...
ROW 38 : ... .. . ... : F-4 02 . ... : ... .. . ... : ... .. . ... : ... .. . ...
ROW 39 : ... .. . ... : ... .. . ... : ... .. . ... : ... .. . ... : ... .. . ...
ROW 3A : ... .. . ... : ... .. . ... : ... .. . ... : ... .. . ... : ... .. . ...
ROW 3B : ... .. . ... : ... .. . ... : ... .. . ... : ... .. . ... : ... .. . ...
ROW 3C : ... .. . ... : E-4 02 . ... : ... .. . ... : ... .. . ... : ... .. . ...
ROW 3D : ... .. . ... : ... .. . ... : ... .. . ... : ... .. . ... : ... .. . ...
ROW 3E : ... .. . ... : ... .. . ... : ... .. . ... : ... .. . ... : ... .. . ...
ROW 3F : ... .. . ... : ... .. . ... : ... .. . ... : ... .. . ... : ... .. . ...

PATTERN 03
ROW 00 : ... .. . ... : C-4 02 . ... : ... .. . ... : ... .. . ... : ... .. . ...
ROW 01 : ... .. . ... : ... .. . ... : ... .. . ... : ... .. . ... : ... .. . ...
ROW 02 : ... .. . ... : C-5 02 . ... : ... .. . ... : ... .. . ... : ... .. . ...
ROW 03 : ... .. . ... : ... .. . ... : ... .. . ... : ... .. . ... : ... .. . ...
ROW 04 : ... .. . ... : A-4 02 . ... : ... .. . ... : ... .. . ... : ... .. . ...
ROW 05 : ... .. . ... : ... .. . ... : ... .. . ... : ... .. . ... : ... .. . ...
ROW 06 : ... .. . ... : D-5 02 . ... : ... .. . ... : ... .. . ... : ... .. . ...
ROW 07 : ... .. . ... : ... .. . ... : ... .. . ... : ... .. . ... : ... .. . ...
ROW 08 : ... .. . ... : C-4 02 . ... : ... .. . ... : ... .. . ... : ... .. . ...
ROW 09 : ... .. . ... : ... .. . ... : ... .. . ... : ... .. . ... : ... .. . ...
ROW 0A : ... .. . ... : C-5 02 . ... : ... .. . ... : ... .. . ... : ... .. . ...
ROW 0B : ... .. . ... : ... .. . ... : ... .. . ... : ... .. . ... : ... .. . ...
ROW 0C : ... .. . ... : A-4 02 . ... : ... .. . ... : ... .. . ... : ... .. . ...
ROW 0D : ... .. . ... : ... .. . ... : ... .. . ... : ... .. . ... : ... .. . ...
ROW 0E : ... .. . ... : E-5 02 . ... : ... .. . ... : ... .. . ... : ... .. . ...
ROW 0F : ... .. . ... : ... .. . ... : ... .. . ... : ... .. . ... : ... .. . ...
ROW 10 : ... .. . ... : D-5 02 . ... : ... .. . ... : ... .. . ... : ... .. . ...
ROW 11 : ... .. . ... : ... .. . ... : ... .. . ... : ... .. . ... : ... .. . ...
ROW 12 : ... .. . ... : C-5 02 . ... : ... .. . ... : ... .. . ... : ... .. . ...
ROW 13 : ... .. . ... : ... .. . ... : ... .. . ... : ... .. . ... : ... .. . ...
ROW 14 : ... .. . ... : B-4 02 . ... : ... .. . ... : ... .. . ... : ... .. . ...
ROW 15 : ... .. . ... : ... .. . ... : ... .. . ... : ... .. . ... : ... .. . ...
ROW 16 : ... .. . ... : C-5 02 . ... : ... .. . ... : ... .. . ... : ... .. . ...
ROW 17 : ... .. . ... : ... .. . ... : ... .. . ... : ... .. . ... : ... .. . ...
ROW 18 : ... .. . ... : A-4 02 . ... : ... .. . ... : ... .. . ... : ... .. . ...
ROW 19 : ... .. . ... : ... .. . ... : ... .. . ... : ... .. . ... : ... .. . ...
ROW 1A : ... .. . ... : C-4 02 . ... : ... .. . ... : ... .. . ... : ... .. . ...
ROW 1B : ... .. . ... : ... .. . ... : ... .. . ... : ... .. . ... : ... .. . ...
ROW 1C : ... .. . ... : C-4 02 . ... : ... .. . ... : ... .. . ... : ... .. . ...
ROW 1D : ... .. . ... : ... .. . ... : ... .. . ... : ... .. . ... : ... .. . ...
ROW 1E : ... .. . ... : C-4 02 . ... : ... .. . ... : ... .. . ... : ... .. . ...
ROW 1F : ... .. . ... : ... .. . ... : ... .. . ... : ... .. . ... : ... .. . ...
ROW 20 : ... .. . ... : B-4 02 . ... : ... .. . ... : ... .. . ... : ... .. . ...
ROW 21 : ... .. . ... : ... .. . ... : ... .. . ... : ... .. . ... : ... .. . ...
ROW 22 : ... .. . ... : D-4 02 . ... : ... .. . ... : ... .. . ... : ... .. . ...
ROW 23 : ... .. . ... : ... .. . ... : ... .. . ... : ... .. . ... : ... .. . ...
ROW 24 : ... .. . ... : D-4 02 . ... : ... .. . ... : ... .. . ... : ... .. . ...
ROW 25 : ... .. . ... : ... .. . ... : ... .. . ... : ... .. . ... : ... .. . ...
ROW 26 : ... .. . ... : D-4 02 . ... : ... .. . ... : ... .. . ... : ... .. . ...
ROW 27 : ... .. . ... : ... .. . ... : ... .. . ... : ... .. . ... : ... .. . ...
ROW 28 : ... .. . ... : C-4 02 . ... : ... .. . ... : ... .. . ... : ... .. . ...
ROW 29 : ... .. . ... : ... .. . ... : ... .. . ... : ... .. . ... : ... .. . ...
ROW 2A : ... .. . ... : C-5 02 . ... : ... .. . ... : ... .. . ... : ... .. . ...
ROW 2B : ... .. . ... : ... .. . ... : ... .. . ... : ... .. . ... : ... .. . ...
ROW 2C : ... .. . ... : A-4 02 . ... : ... .. . ... : ... .. . ... : ... .. . ...
ROW 2D : ... .. . ... : ... .. . ... : ... .. . ... : ... .. . ... : ... .. . ...
ROW 2E : ... .. . ... : D-5 02 . ... : ... .. . ... : ... .. . ... : ... .. . ...
ROW 2F : ... .. . ... : ... .. . ... : ... .. . ... : ... .. . ... : ... .. . ...
ROW 30 : ... .. . ... : C-4 02 . ... : ... .. . ... : ... .. . ... : ... .. . ...
ROW 31 : ... .. . ... : ... .. . ... : ... .. . ... : ... .. . ... : ... .. . ...
ROW 32 : ... .. . ... : C-5 02 . ... : ... .. . ... : ... .. . ... : ... .. . ...
ROW 33 : ... .. . ... : ... .. . ... : ... .. . ... : ... .. . ... : ... .. . ...
ROW 34 : ... .. . ... : A-4 02 . ... : ... .. . ... : ... .. . ... : ... .. . ...
ROW 35 : ... .. . ... : ... .. . ... : ... .. . ... : ... .. . ... : ... .. . ...
ROW 36 : ... .. . ... : D-5 02 . ... : ... .. . ... : ... .. . ... : ... .. . ...
ROW 37 : ... .. . ... : ... .. . ... : ... .. . ... : ... .. . ... : ... .. . ...
ROW 38 : ... .. . ... : E-5 02 . ... : ... .. . ... : ... .. . ... : ... .. . ...
ROW 39 : ... .. . ... : ... .. . ... : ... .. . ... : ... .. . ... : ... .. . ...
ROW 3A : ... .. . ... : D-5 02 . ... : ... .. . ... : ... .. . ... : ... .. . ...
ROW 3B : ... .. . ... : ... .. . ... : ... .. . ... : ... .. . ... : ... .. . ...
ROW 3C : ... .. . ... : C-5 02 . ... : ... .. . ... : ... .. . ... : ... .. . ...
ROW 3D : ... .. . ... : ... .. . ... : ... .. . ... : ... .. . ... : ... .. . ...
ROW 3E : ... .. . ... : B-4 02 . ... : ... .. . ... : ... .. . ... : ... .. . ...
ROW 3F : ... .. . ... : ... .. . ... : ... .. . ... : ... .. . ... : ... .. . ...

# End of export
